<svg width="72" height="55" viewBox="0 0 72 55" fill="none" xmlns="http://www.w3.org/2000/svg">
<g clip-path="url(#clip0_1_14)">
<path fill-rule="evenodd" clip-rule="evenodd" d="M62.6617 6.70834L58.9488 10.1545C53.6457 20.5858 56.9184 32.1471 51.8137 41.6832C48.5984 42.5136 43.4154 43.8959 38.5612 41.2066C35.4903 34.4124 32.4212 27.6183 29.3504 20.8241L25.8915 35.0852L15.9152 32.9215L22.0308 9.91622C26.3091 4.29411 31.861 4.77766 34.5369 5.91995C36.6908 11.1864 38.8448 16.4546 40.9987 21.7211L44.5672 32.0963C48.0556 25.2706 45.2109 13.0575 51.5388 7.7718C57.8858 1.69767 66.345 0.280317 71.9995 0C66.345 4.9003 69.0626 12.404 68.1405 17.8895C67.0479 20.7242 65.6282 24.5681 58.3103 24.6346C60.5617 20.3353 59.3803 12.9191 62.6617 6.70659V6.70834Z" fill="url(#paint0_linear_1_14)"/>
<path fill-rule="evenodd" clip-rule="evenodd" d="M41.1901 42.2876C42.3767 40.4778 43.9739 36.2993 44.6315 31.9702C44.6107 32.0122 44.5898 32.056 44.5672 32.0981L40.9987 21.7228L34.5369 5.92171C31.861 4.77942 26.3091 4.29587 22.0308 9.91799L15.9152 32.9233L25.8915 35.087L29.3504 20.8258L38.5612 41.2084C39.4328 41.6902 40.3132 42.0423 41.1918 42.2894L41.1901 42.2876Z" fill="url(#paint1_linear_1_14)"/>
<path fill-rule="evenodd" clip-rule="evenodd" d="M44.6315 31.9684C43.9738 36.2993 42.3766 40.4778 41.1901 42.2859C45.2091 43.4159 49.1725 42.3647 51.8119 41.6814C56.9167 32.1471 53.644 20.584 58.9471 10.1527L62.6599 6.70659C59.3803 12.9174 60.5617 20.3335 58.3085 24.6346C65.6264 24.5681 67.0461 20.7242 68.1387 17.8895C69.0609 12.4023 66.3432 4.9003 71.9977 0C66.3432 0.280317 57.884 1.69942 51.537 7.7718C45.2474 13.0242 48.019 25.1199 44.6298 31.9684H44.6315Z" fill="url(#paint2_linear_1_14)"/>
<path fill-rule="evenodd" clip-rule="evenodd" d="M0.000610352 44.0729C0.000610352 44.0729 7.28192 37.1806 19.661 43.4124C32.0401 49.6442 34.4794 50.3047 36.007 50.8548C45.0978 54.124 55.9406 42.5451 54.4565 43.0918C37.0927 49.4847 32.3028 39.954 22.6988 37.0947C15.8699 35.0607 2.76525 35.6318 0.000610352 44.0729Z" fill="url(#paint3_linear_1_14)"/>
<path fill-rule="evenodd" clip-rule="evenodd" d="M12.15 44.4303L21.6879 47.2159C16.1882 56.1861 1.65171 55.7026 1.32462 54.0242C0.804403 51.3506 12.3953 53.1377 12.1483 44.4303H12.15Z" fill="url(#paint4_linear_1_14)"/>
</g>
<defs>
<linearGradient id="paint0_linear_1_14" x1="43.9573" y1="0" x2="43.9573" y2="42.7856" gradientUnits="userSpaceOnUse">
<stop stop-color="#F89449"/>
<stop offset="0.5" stop-color="#FAB886"/>
<stop offset="1" stop-color="#F89449"/>
</linearGradient>
<linearGradient id="paint1_linear_1_14" x1="15.9152" y1="23.7411" x2="44.6315" y2="23.7411" gradientUnits="userSpaceOnUse">
<stop stop-color="#F89449"/>
<stop offset="0.5" stop-color="#FAB886"/>
<stop offset="1" stop-color="#F89449"/>
</linearGradient>
<linearGradient id="paint2_linear_1_14" x1="41.1901" y1="21.3917" x2="71.9995" y2="21.3917" gradientUnits="userSpaceOnUse">
<stop stop-color="#F89449"/>
<stop offset="0.51" stop-color="#FAB886"/>
<stop offset="1" stop-color="#F89449"/>
</linearGradient>
<linearGradient id="paint3_linear_1_14" x1="0.000610352" y1="43.775" x2="54.5939" y2="43.775" gradientUnits="userSpaceOnUse">
<stop stop-color="#F89449"/>
<stop offset="0.51" stop-color="#FAB886"/>
<stop offset="1" stop-color="#F89449"/>
</linearGradient>
<linearGradient id="paint4_linear_1_14" x1="1.3107" y1="49.716" x2="21.6897" y2="49.716" gradientUnits="userSpaceOnUse">
<stop stop-color="#F89449"/>
<stop offset="0.509804" stop-color="#FAB886"/>
<stop offset="1" stop-color="#F89449"/>
</linearGradient>
<clipPath id="clip0_1_14">
<rect width="72" height="55" fill="white"/>
</clipPath>
</defs>
</svg>
